<svg xmlns="http://www.w3.org/2000/svg" width="160" height="240" viewBox="0 0 160 240"><g fill="none" fill-rule="evenodd"><path fill="#979797" fill-rule="nonzero" d="M148.666667,0 C154.925894,0 160,6.0889274 160,13.6 L160,226.4 C160,233.911073 154.925894,240 148.666667,240 L11.3333333,240 C5.07410617,240 0,233.911073 0,226.4 L0,13.6 C0,6.0889274 5.07410617,0 11.3333333,0 L148.666667,0 Z M149.017391,4 L11.9826087,4 C7.64176139,4 4.11016482,8.1668355 4.00252773,13.3560202 L4,13.6 L4,226.4 C4,231.620365 7.4648143,235.867514 11.7797342,235.99696 L11.9826087,236 L149.017391,236 C153.358239,236 156.889835,231.833165 156.997472,226.64398 L157,226.4 L157,13.6 C157,8.37963461 153.535186,4.1324858 149.220266,4.00303989 L149.017391,4 Z"/><path fill="#F60B3C" fill-rule="nonzero" d="M52.2289452,167 L118,73 L109.831562,73 L44,167 L52.2289452,167 Z M66.759292,128 L66.759292,120.634468 L43.3504425,120.634468 C44.2731563,116.609587 47.4023599,112.403586 52.7380531,108.016465 L52.7380531,108.016465 L55.9274336,105.360044 C63.3091445,99.3227223 67,93.4866447 67,87.8518112 C67,83.424442 65.3952802,79.8422978 62.1858407,77.1053787 C58.9764012,74.3684596 54.7439528,73 49.4884956,73 C44.5138643,73 39.4589971,74.0665935 34.3238938,76.1997805 L34.3238938,76.1997805 L34.3238938,83.32382 C39.4589971,80.546652 43.9120944,79.1580681 47.6831858,79.1580681 C54.2224189,79.1580681 57.4920354,82.1566045 57.4920354,88.1536773 C57.4920354,92.903037 54.3828909,98.0750091 48.1646018,103.669594 L48.1646018,103.669594 L43.9522124,107.412733 C39.2182891,111.679107 35.5675516,116.086352 33,120.634468 L33,120.634468 L33,128 L66.759292,128 Z M107.584699,165 C113.595628,165 118.334244,163.587983 121.800546,160.763948 C125.266849,157.939914 127,154.084406 127,149.197425 C127,141.706724 122.591985,136.939914 113.775956,134.896996 C121.429872,132.293276 125.256831,127.846924 125.256831,121.55794 C125.256831,113.18598 119.606557,109 108.306011,109 C103.657559,109 99.129326,109.741059 94.7213115,111.223176 L94.7213115,111.223176 L94.7213115,118.012876 C99.2094718,115.969957 103.256831,114.948498 106.863388,114.948498 C113.114754,114.948498 116.240437,117.532189 116.240437,122.699571 C116.240437,129.34907 111.351548,132.67382 101.57377,132.67382 L101.57377,132.67382 L98.9289617,132.67382 L98.9289617,138.261803 L101.994536,138.261803 C112.413479,138.261803 117.622951,141.886981 117.622951,149.137339 C117.622951,152.101574 116.601093,154.484979 114.557377,156.287554 C112.513661,158.090129 109.868852,158.991416 106.622951,158.991416 C103.457195,158.991416 99.2495446,157.989986 94,155.987124 L94,155.987124 L94,163.257511 C98.7285974,164.41917 103.256831,165 107.584699,165 Z"/></g></svg>