<svg xmlns="http://www.w3.org/2000/svg" width="240" height="320" viewBox="0 0 240 320"><g fill="none" fill-rule="evenodd"><path fill="#979797" fill-rule="nonzero" d="M223,0 C232.388841,0 240,8.11856987 240,18.1333333 L240,301.866667 C240,311.88143 232.388841,320 223,320 L17,320 C7.61115925,320 0,311.88143 0,301.866667 L0,18.1333333 C0,8.11856987 7.61115925,0 17,0 L223,0 Z M223,6 L17,6 C10.4745433,6 5.16560725,11.5497938 5.00379986,18.461251 L5,18.7862069 L5,302.213793 C5,309.16678 10.2085444,314.823543 16.6950252,314.995951 L17,315 L223,315 C229.525457,315 234.834393,309.450206 234.9962,302.538749 L235,302.213793 L235,18.7862069 C235,11.8332202 229.791456,6.17645738 223.304975,6.00404881 L223,6 Z"/><path fill="#F60B3C" fill-rule="nonzero" d="M88.5048327,211 L173,108 L163.495167,108 L79,211 L88.5048327,211 Z M85.2700486,170 C91.5722273,170 97.3183314,168.384327 102.508361,165.152981 C107.69839,161.921635 110.965329,157.214098 112.309175,151.030371 C112.91159,148.054743 112.981099,145.613798 112.517703,143.707537 C111.590912,140.313461 108.972728,137.872516 104.66315,136.384702 C107.628881,135.547807 110.061707,134.001875 111.961629,131.746907 C113.86155,129.491939 115.089548,126.969629 115.645623,124.179978 C116.618754,119.623547 115.587699,115.787777 112.552458,112.672666 C109.517218,109.557555 104.964357,108 98.893876,108 C92.8697347,108 87.5175168,109.662167 82.8372223,112.986502 C78.1569279,116.310836 75.1216874,121.320585 73.731501,128.015748 L73.731501,128.015748 L83.7408435,128.015748 C84.7603136,123.831271 86.4401223,120.87889 88.7802695,119.158605 C91.1204167,117.43832 93.8892047,116.578178 97.0866336,116.578178 C100.608439,116.578178 102.925417,117.43832 104.037566,119.158605 C105.149715,120.87889 105.497262,122.738658 105.080206,124.737908 C104.246094,128.503937 102.021796,130.991376 98.4073108,132.200225 C96.3683706,132.851144 93.1014324,133.153356 88.6064962,133.106862 L88.6064962,133.106862 L86.7992538,141.545557 C90.8307945,141.406074 94.0282234,141.731534 96.3915404,142.521935 C100.747458,144.056243 102.462021,147.101612 101.53523,151.658043 C100.932816,154.447694 99.4499506,156.795651 97.0866336,158.701912 C94.7233166,160.608174 91.3173598,161.561305 86.8687631,161.561305 C82.4201664,161.561305 79.5934539,160.375703 78.3886256,158.004499 C77.2764764,155.865767 77.0679485,153.12261 77.7630417,149.775028 L77.7630417,149.775028 L67.5451712,149.775028 C66.6183802,154.145482 66.8732477,158.120735 68.3097737,161.700787 C70.7194303,167.233596 76.3728552,170 85.2700486,170 Z M157.314367,208 L160.172119,194.465116 L168.118065,194.465116 L169.930299,185.883721 L161.984353,185.883721 L170,148 L160.590327,148 L122.951636,185.046512 L121,194.465116 L149.438122,194.465116 L146.58037,208 L157.314367,208 Z M150.892128,186 L132,186 L156,162 L150.892128,186 Z"/></g></svg>