<svg xmlns="http://www.w3.org/2000/svg" width="240" height="312" viewBox="0 0 240 312"><g fill="none" fill-rule="evenodd"><path fill="#979797" fill-rule="nonzero" d="M223,0 C232.388841,0 240,7.91560562 240,17.68 L240,294.32 C240,304.084394 232.388841,312 223,312 L17,312 C7.61115925,312 0,304.084394 0,294.32 L0,17.68 C0,7.91560562 7.61115925,0 17,0 L223,0 Z M223,6 L17,6 C10.4745433,6 5.16560725,11.4061098 5.00379986,18.1386296 L5,18.4551724 L5,294.544828 C5,301.317802 10.2085444,306.828111 16.6950252,306.996056 L17,307 L223,307 C229.525457,307 234.834393,301.59389 234.9962,294.86137 L235,294.544828 L235,18.4551724 C235,11.6821984 229.791456,6.1718889 223.304975,6.00394399 L223,6 Z"/><path fill="#F60B3C" fill-rule="nonzero" d="M88.5048327 244 173 141 163.495167 141 79 244 88.5048327 244ZM85.2700486 203C91.5722273 203 97.3183314 201.384327 102.508361 198.152981 107.69839 194.921635 110.965329 190.214098 112.309175 184.030371 112.91159 181.054743 112.981099 178.613798 112.517703 176.707537 111.590912 173.313461 108.972728 170.872516 104.66315 169.384702 107.628881 168.547807 110.061707 167.001875 111.961629 164.746907 113.86155 162.491939 115.089548 159.969629 115.645623 157.179978 116.618754 152.623547 115.587699 148.787777 112.552458 145.672666 109.517218 142.557555 104.964357 141 98.893876 141 92.8697347 141 87.5175168 142.662167 82.8372223 145.986502 78.1569279 149.310836 75.1216874 154.320585 73.731501 161.015748L73.731501 161.015748 83.7408435 161.015748C84.7603136 156.831271 86.4401223 153.87889 88.7802695 152.158605 91.1204167 150.43832 93.8892047 149.578178 97.0866336 149.578178 100.608439 149.578178 102.925417 150.43832 104.037566 152.158605 105.149715 153.87889 105.497262 155.738658 105.080206 157.737908 104.246094 161.503937 102.021796 163.991376 98.4073108 165.200225 96.3683706 165.851144 93.1014324 166.153356 88.6064962 166.106862L88.6064962 166.106862 86.7992538 174.545557C90.8307945 174.406074 94.0282234 174.731534 96.3915404 175.521935 100.747458 177.056243 102.462021 180.101612 101.53523 184.658043 100.932816 187.447694 99.4499506 189.795651 97.0866336 191.701912 94.7233166 193.608174 91.3173598 194.561305 86.8687631 194.561305 82.4201664 194.561305 79.5934539 193.375703 78.3886256 191.004499 77.2764764 188.865767 77.0679485 186.12261 77.7630417 182.775028L77.7630417 182.775028 67.5451712 182.775028C66.6183802 187.145482 66.8732477 191.120735 68.3097737 194.700787 70.7194303 200.233596 76.3728552 203 85.2700486 203ZM157.314367 241 160.172119 227.465116 168.118065 227.465116 169.930299 218.883721 161.984353 218.883721 170 181 160.590327 181 122.951636 218.046512 121 227.465116 149.438122 227.465116 146.58037 241 157.314367 241ZM150.892128 219 132 219 156 195 150.892128 219ZM68.140625 112 71.6269531 95.5644531C72.0566406 93.5136719 72.5205078 91.9365234 73.0185547 90.8330078 73.5166016 89.7294922 74.3125 88.6601562 75.40625 87.625 76.7734375 86.3359375 78.2285156 85.4765625 79.7714844 85.046875 80.6308594 84.7929688 81.6855469 84.6660156 82.9355469 84.6660156 85.3964844 84.6660156 86.890625 85.6425781 87.4179688 87.5957031 87.7304688 88.7675781 87.6816406 90.3105469 87.2714844 92.2246094L87.2714844 92.2246094 83.0820312 112 88.4433594 112 92.7207031 91.8730469C93.3847656 88.7089844 93.4628906 86.2773438 92.9550781 84.578125 92.0566406 81.4726562 89.3808594 79.9199219 84.9277344 79.9199219 82.8964844 79.9199219 80.9677734 80.3203125 79.1416016 81.1210938 77.3154297 81.921875 75.4648438 83.2402344 73.5898438 85.0761719L73.5898438 85.0761719 74.5273438 80.6230469 69.5175781 80.6230469 62.8671875 112 68.140625 112ZM108.21875 113.113281C109.820312 113.113281 111.294922 112.957031 112.642578 112.644531 115.123047 112.097656 117.330078 111.042969 119.263672 109.480469 120.416016 108.582031 121.524414 107.424805 122.588867 106.008789 123.65332 104.592773 124.380859 103.308594 124.771484 102.15625L124.771484 102.15625 119.585938 102.15625C118.902344 103.542969 117.974609 104.763672 116.802734 105.818359 114.791016 107.634766 112.408203 108.542969 109.654297 108.542969 106.705078 108.542969 104.727539 107.581055 103.72168 105.657227 102.71582 103.733398 102.505859 101.179688 103.091797 97.9960938L103.091797 97.9960938 126.089844 97.9960938C126.773438 94.8320312 127.105469 92.5273438 127.085938 91.0820312 127.183594 88.9726562 126.871094 87.1269531 126.148438 85.5449219 125.425781 83.8847656 124.126953 82.5322266 122.251953 81.4873047 120.376953 80.4423828 118.326172 79.9199219 116.099609 79.9199219 111.685547 79.9199219 107.779297 81.4921875 104.380859 84.6367188 100.982422 87.78125 98.7460938 91.8730469 97.671875 96.9121094 96.578125 102.029297 97.0859375 106.008789 99.1953125 108.850586 101.304688 111.692383 104.3125 113.113281 108.21875 113.113281ZM121.548828 93.8066406 104.117188 93.8066406C104.800781 91.1113281 106.148438 88.8896484 108.160156 87.1416016 110.171875 85.3935547 112.388672 84.5195312 114.810547 84.5195312 118.189453 84.5195312 120.328125 85.7890625 121.226562 88.328125 121.714844 89.6953125 121.822266 91.5214844 121.548828 93.8066406L121.548828 93.8066406ZM137.808594 113.054688C140.230469 113.054688 142.554688 112.537109 144.78125 111.501953 147.007812 110.466797 148.814453 109.246094 150.201172 107.839844 150.103516 109.089844 150.201172 110.056641 150.494141 110.740234 151.041016 112.029297 152.222656 112.673828 154.039062 112.673828 154.78125 112.673828 155.37207 112.644531 155.811523 112.585938 156.250977 112.527344 156.900391 112.380859 157.759766 112.146484L157.759766 112.146484 158.609375 108.25C158.257812 108.308594 157.930664 108.352539 157.62793 108.381836 157.325195 108.411133 157.056641 108.425781 156.822266 108.425781 156.099609 108.425781 155.665039 108.259766 155.518555 107.927734 155.37207 107.595703 155.357422 107.15625 155.474609 106.609375L155.474609 106.609375 159.3125 88.5332031C159.9375 85.5644531 159.253906 83.3769531 157.261719 81.9707031 155.269531 80.5644531 152.427734 79.8613281 148.736328 79.8613281 145.552734 79.8613281 142.59375 80.6181641 139.859375 82.1318359 137.125 83.6455078 135.298828 86.3359375 134.380859 90.203125L134.380859 90.203125 139.302734 90.203125C139.830078 88.5820312 140.503906 87.3613281 141.324219 86.5410156 142.789062 85.0566406 144.898438 84.3144531 147.652344 84.3144531 150.035156 84.3144531 151.783203 84.7197266 152.896484 85.5302734 154.009766 86.3408203 154.371094 87.6445312 153.980469 89.4414062 153.804688 90.3203125 153.550781 90.9941406 153.21875 91.4628906 152.613281 92.3222656 151.685547 92.8300781 150.435547 92.9863281L150.435547 92.9863281 141.822266 94.0410156C138.794922 94.4121094 136.202148 95.3984375 134.043945 97 131.885742 98.6015625 130.494141 100.857422 129.869141 103.767578 129.302734 106.423828 129.756836 108.635742 131.231445 110.40332 132.706055 112.170898 134.898438 113.054688 137.808594 113.054688ZM139.976562 108.572266C138.453125 108.572266 137.227539 108.132812 136.299805 107.253906 135.37207 106.375 135.074219 105.173828 135.40625 103.650391 135.835938 101.638672 136.958984 100.173828 138.775391 99.2558594 139.849609 98.7089844 141.373047 98.3085938 143.345703 98.0546875L143.345703 98.0546875 146.626953 97.6445312C147.623047 97.5273438 148.658203 97.3320312 149.732422 97.0585938 150.806641 96.7851562 151.705078 96.4433594 152.427734 96.0332031L152.427734 96.0332031 151.548828 100.28125C150.845703 103.523438 148.882812 105.857422 145.660156 107.283203 143.726562 108.142578 141.832031 108.572266 139.976562 108.572266ZM168.394531 112 172.203125 93.953125C172.691406 91.7265625 173.829102 89.7587891 175.616211 88.0498047 177.40332 86.3408203 179.625 85.4863281 182.28125 85.4863281 182.59375 85.4863281 182.876953 85.4960938 183.130859 85.515625 183.384766 85.5351562 183.667969 85.5742188 183.980469 85.6328125L183.980469 85.6328125 185.152344 80.0664062C184.605469 80.0078125 184.214844 79.96875 183.980469 79.9492188 183.746094 79.9296875 183.580078 79.9199219 183.482422 79.9199219 181.392578 79.9199219 179.385742 80.6767578 177.461914 82.1904297 175.538086 83.7041016 174.263672 84.9882812 173.638672 86.0429688L173.638672 86.0429688 174.78125 80.6230469 169.771484 80.6230469 163.121094 112 168.394531 112Z"/></g></svg>